<svg width="16" height="18" viewBox="0 0 16 18" fill="none" xmlns="http://www.w3.org/2000/svg">
<path fill-rule="evenodd" clip-rule="evenodd" d="M13.2126 11.2205L13.4312 9.64966C13.4984 9.16634 13.5599 8.7245 13.6146 8.3192C13.7269 7.48627 13.7831 7.06981 13.534 6.78495C13.285 6.50008 12.857 6.50008 12.001 6.50008H3.99937C3.14335 6.50008 2.71534 6.50008 2.46631 6.78495C2.21728 7.06981 2.27344 7.48627 2.38576 8.31919C2.44044 8.72462 2.50189 9.16616 2.56917 9.64965L2.78779 11.2205C3.02538 12.9278 3.14418 13.7814 3.39607 14.467C3.86712 15.7491 4.68136 16.704 5.65321 17.1141C6.17291 17.3334 6.78201 17.3334 8.00017 17.3334C9.21833 17.3334 9.82743 17.3334 10.3471 17.1141C11.319 16.704 12.1332 15.7491 12.6043 14.467C12.8562 13.7814 12.975 12.9278 13.2126 11.2205ZM6.9585 8.16675C6.9585 7.82157 6.67867 7.54175 6.3335 7.54175C5.98832 7.54175 5.7085 7.82157 5.7085 8.16675V14.8334C5.7085 15.1786 5.98832 15.4584 6.3335 15.4584C6.67867 15.4584 6.9585 15.1786 6.9585 14.8334V8.16675ZM10.2918 8.16675C10.2918 7.82157 10.012 7.54175 9.66683 7.54175C9.32165 7.54175 9.04183 7.82157 9.04183 8.16675V14.8334C9.04183 15.1786 9.32165 15.4584 9.66683 15.4584C10.012 15.4584 10.2918 15.1786 10.2918 14.8334V8.16675Z" fill="#FF5151"/>
<path d="M8.00016 0.041748C5.81404 0.041748 4.04183 1.81395 4.04183 4.00008V4.20841H1.3335C0.988318 4.20841 0.708496 4.48824 0.708496 4.83341C0.708496 5.17859 0.988318 5.45841 1.3335 5.45841H14.6668C15.012 5.45841 15.2918 5.17859 15.2918 4.83341C15.2918 4.48824 15.012 4.20841 14.6668 4.20841H11.9585V4.00008C11.9585 1.81395 10.1863 0.041748 8.00016 0.041748Z" fill="#FF5151"/>
</svg>
