<svg width="16" height="14" viewBox="0 0 16 14" fill="none" xmlns="http://www.w3.org/2000/svg">
<path d="M0.708252 2.83317C0.708252 1.56752 1.73427 0.541504 2.99992 0.541504C4.26557 0.541504 5.29159 1.56752 5.29159 2.83317C5.29159 4.09882 4.26557 5.12484 2.99992 5.12484C1.73427 5.12484 0.708252 4.09882 0.708252 2.83317Z" fill="#3F4246"/>
<path d="M7.37492 2.83317C7.37492 2.48799 7.65474 2.20817 7.99992 2.20817L14.6666 2.20817C15.0118 2.20817 15.2916 2.48799 15.2916 2.83317C15.2916 3.17835 15.0118 3.45817 14.6666 3.45817L7.99992 3.45817C7.65474 3.45817 7.37492 3.17835 7.37492 2.83317Z" fill="#3F4246"/>
<path d="M12.9999 8.87484C11.7343 8.87484 10.7083 9.90085 10.7083 11.1665C10.7083 12.4322 11.7343 13.4582 12.9999 13.4582C14.2656 13.4582 15.2916 12.4322 15.2916 11.1665C15.2916 9.90085 14.2656 8.87484 12.9999 8.87484Z" fill="#3F4246"/>
<path d="M0.708252 11.1665C0.708252 10.8213 0.988074 10.5415 1.33325 10.5415L7.99992 10.5415C8.3451 10.5415 8.62492 10.8213 8.62492 11.1665C8.62492 11.5117 8.3451 11.7915 7.99992 11.7915L1.33325 11.7915C0.988074 11.7915 0.708252 11.5117 0.708252 11.1665Z" fill="#3F4246"/>
</svg>
