<svg width="18" height="4" viewBox="0 0 18 4" fill="none" xmlns="http://www.w3.org/2000/svg">
<path d="M8.99984 0.333414C9.92031 0.333414 10.6665 1.07961 10.6665 2.00008C10.6665 2.92056 9.92031 3.66675 8.99984 3.66675C8.07936 3.66675 7.33317 2.92056 7.33317 2.00008C7.33317 1.07961 8.07936 0.333414 8.99984 0.333414Z" fill="white"/>
<path d="M2.33317 0.333414C3.25365 0.333414 3.99984 1.07961 3.99984 2.00008C3.99984 2.92056 3.25365 3.66675 2.33317 3.66675C1.4127 3.66675 0.666504 2.92056 0.666504 2.00008C0.666504 1.07961 1.4127 0.333414 2.33317 0.333414Z" fill="white"/>
<path d="M15.6665 0.333414C16.587 0.333414 17.3332 1.07961 17.3332 2.00008C17.3332 2.92056 16.587 3.66675 15.6665 3.66675C14.746 3.66675 13.9998 2.92056 13.9998 2.00008C13.9998 1.07961 14.746 0.333414 15.6665 0.333414Z" fill="white"/>
</svg>
