<svg width="28" height="28" viewBox="0 0 28 28" fill="none" xmlns="http://www.w3.org/2000/svg">
<path fill-rule="evenodd" clip-rule="evenodd" d="M5.90459 3.44732C6.02725 3.3582 6.1541 3.27621 6.28592 3.20077C6.32827 3.29508 6.38816 3.38343 6.46561 3.46087C7.97125 4.96645 9.15308 6.1464 10.1949 6.98022C11.2496 7.82435 12.2373 8.37843 13.3753 8.55867C14.0705 8.6688 14.7788 8.6688 15.4741 8.55867C16.5803 8.38347 17.5443 7.8551 18.566 7.05047C19.5747 6.25611 20.707 5.13649 22.1324 3.7121C22.1782 3.6664 22.2178 3.6169 22.2513 3.56461C22.6824 3.90038 23.0644 4.29526 23.3859 4.73784C24.5 6.27122 24.5 8.45857 24.5 12.8333V15.1666C24.5 19.5413 24.5 21.7286 23.3859 23.262C23.0261 23.7572 22.5906 24.1927 22.0954 24.5525C20.562 25.6666 18.3747 25.6666 14 25.6666C9.62531 25.6666 7.43797 25.6666 5.90459 24.5525C5.40937 24.1927 4.97387 23.7572 4.61407 23.262C3.5 21.7286 3.5 19.5413 3.5 15.1666V12.8333C3.5 8.45857 3.5 6.27122 4.61407 4.73784C4.97387 4.24262 5.40937 3.80712 5.90459 3.44732ZM9.33333 10.7916C8.85008 10.7916 8.45833 11.1833 8.45833 11.6666C8.45833 12.1498 8.85008 12.5416 9.33333 12.5416H18.6667C19.1499 12.5416 19.5417 12.1498 19.5417 11.6666C19.5417 11.1833 19.1499 10.7916 18.6667 10.7916H9.33333ZM9.33333 15.4583C8.85008 15.4583 8.45833 15.85 8.45833 16.3333C8.45833 16.8165 8.85008 17.2083 9.33333 17.2083H12.8333C13.3166 17.2083 13.7083 16.8165 13.7083 16.3333C13.7083 15.85 13.3166 15.4583 12.8333 15.4583H9.33333ZM9.33333 20.1249C8.85008 20.1249 8.45833 20.5167 8.45833 20.9999C8.45833 21.4832 8.85008 21.8749 9.33333 21.8749H18.6667C19.1499 21.8749 19.5417 21.4832 19.5417 20.9999C19.5417 20.5167 19.1499 20.1249 18.6667 20.1249H9.33333Z" fill="#2D69E0"/>
<path d="M14 2.33325C17.1499 2.33325 19.1658 2.33325 20.6201 2.74914C19.313 4.05279 18.3353 5.00462 17.4833 5.67564C16.5855 6.38269 15.8973 6.71983 15.2003 6.83022C14.6864 6.91161 14.1629 6.91161 13.649 6.83022C12.9321 6.71667 12.2245 6.36321 11.2884 5.61394C10.4167 4.9163 9.41385 3.93208 8.06937 2.58954C9.46019 2.33325 11.3195 2.33325 14 2.33325Z" fill="#2D69E0"/>
</svg>
