<svg width="16" height="16" viewBox="0 0 16 16" fill="none" xmlns="http://www.w3.org/2000/svg">
<path d="M8.62492 1.33325C8.62492 0.988074 8.3451 0.708252 7.99992 0.708252C7.65474 0.708252 7.37492 0.988074 7.37492 1.33325L7.37492 7.37492H1.33325C0.988074 7.37492 0.708252 7.65474 0.708252 7.99992C0.708252 8.3451 0.988074 8.62492 1.33325 8.62492H7.37492V14.6666C7.37492 15.0118 7.65474 15.2916 7.99992 15.2916C8.3451 15.2916 8.62492 15.0118 8.62492 14.6666V8.62492H14.6666C15.0118 8.62492 15.2916 8.3451 15.2916 7.99992C15.2916 7.65474 15.0118 7.37492 14.6666 7.37492H8.62492L8.62492 1.33325Z" fill="#FAFAFA"/>
</svg>
