<svg width="19" height="19" viewBox="0 0 19 19" fill="none" xmlns="http://www.w3.org/2000/svg">
<path fill-rule="evenodd" clip-rule="evenodd" d="M0.666748 8.3335C0.666748 4.19136 4.02461 0.833496 8.16675 0.833496C12.3089 0.833496 15.6667 4.19136 15.6667 8.3335C15.6667 12.4756 12.3089 15.8335 8.16675 15.8335C4.02461 15.8335 0.666748 12.4756 0.666748 8.3335ZM7.29888 3.28699C7.35288 3.62792 7.12027 3.94807 6.77935 4.00207C5.26389 4.24209 4.07535 5.43064 3.83532 6.94609C3.78132 7.28702 3.46117 7.51963 3.12025 7.46563C2.77932 7.41163 2.54671 7.09148 2.60071 6.75055C2.92545 4.70023 4.53349 3.0922 6.5838 2.76746C6.92473 2.71346 7.24488 2.94607 7.29888 3.28699Z" fill="#3F4246"/>
<path d="M14.3915 14.5582C14.6356 14.3141 15.0313 14.3141 15.2754 14.5582L18.6086 17.8915C18.8527 18.1356 18.8527 18.5313 18.6086 18.7754C18.3645 19.0195 17.9688 19.0195 17.7247 18.7754L14.3915 15.4421C14.1474 15.198 14.1474 14.8023 14.3915 14.5582Z" fill="#3F4246"/>
</svg>
