<svg width="20" height="16" viewBox="0 0 20 16" fill="none" xmlns="http://www.w3.org/2000/svg">
<path d="M5.15424 1.31418L7.63482 8.93162C7.64094 8.95042 7.64787 8.96872 7.65555 8.98651V10.6666C7.65555 11.0118 7.93537 11.2916 8.28055 11.2916C8.62573 11.2916 8.90555 11.0118 8.90555 10.6666V0.984665C9.15177 0.875394 9.4194 0.812822 9.70185 0.774847C10.1975 0.70821 10.8218 0.708229 11.5706 0.708253L15.4102 0.708255C17.8009 0.708255 19.7389 2.64628 19.7389 5.03696C19.7389 5.73007 19.3414 6.36176 18.7166 6.66169L18.3104 6.85664C17.3513 7.31705 17.3513 8.68279 18.3104 9.1432L18.7166 9.33815C19.3414 9.63808 19.7389 10.2698 19.7389 10.9629C19.7389 13.3536 17.8009 15.2916 15.4102 15.2916H8.28197C8.6265 15.2908 8.90555 15.0113 8.90555 14.6666V13.6666C8.90555 13.3214 8.62573 13.0416 8.28055 13.0416C7.93537 13.0416 7.65555 13.3214 7.65555 13.6666V14.6666C7.65555 15.0111 7.93428 15.2905 8.27853 15.2916L5.68363 15.2916C4.23099 15.2916 2.88991 14.5126 2.17018 13.2508L2.01406 12.9771C1.94608 12.8579 1.8937 12.7305 1.85819 12.598C1.69874 12.0029 1.89469 11.3691 2.36218 10.9679L2.79965 10.5924C3.60699 9.89937 3.25351 8.58017 2.20784 8.3837L1.76508 8.30052C1.08389 8.17253 0.536457 7.66524 0.357067 6.99574C-0.261685 4.68653 1.10871 2.31294 3.41792 1.69419L3.44998 1.68559C4.00925 1.53573 4.47589 1.41068 4.86361 1.34939C4.96137 1.33393 5.05818 1.32177 5.15424 1.31418Z" fill="#FF7A00"/>
</svg>
