<svg width="16" height="17" viewBox="0 0 16 17" fill="none" xmlns="http://www.w3.org/2000/svg">
<path fill-rule="evenodd" clip-rule="evenodd" d="M7.375 13.1667C7.375 13.5118 7.65482 13.7917 8 13.7917C8.34518 13.7917 8.625 13.5118 8.625 13.1667L8.625 6.5H10.5C11.2742 6.5 11.6613 6.5 11.9851 6.5513C13.768 6.83368 15.1663 8.23197 15.4487 10.0149C15.5 10.3387 15.5 10.7258 15.5 11.5C15.5 12.2742 15.5 12.6613 15.4487 12.9851C15.1663 14.768 13.768 16.1663 11.9851 16.4487C11.6613 16.5 11.2742 16.5 10.5 16.5H5.5C4.72583 16.5 4.33874 16.5 4.01486 16.4487C2.23197 16.1663 0.83368 14.768 0.551299 12.9851C0.5 12.6613 0.5 12.2742 0.5 11.5C0.5 10.7258 0.5 10.3387 0.551299 10.0149C0.83368 8.23197 2.23197 6.83368 4.01486 6.5513C4.33874 6.5 4.72583 6.5 5.5 6.5H7.375L7.375 13.1667ZM7.375 6.5L7.375 2.49127C7.10612 2.76414 6.78646 3.16581 6.32128 3.7525L5.1564 5.22164C4.94195 5.49212 4.54883 5.53753 4.27836 5.32307C4.00789 5.10861 3.96247 4.7155 4.17693 4.44503L5.36547 2.94603C5.80979 2.38563 6.17643 1.9232 6.50459 1.59377C6.84135 1.25571 7.21513 0.975462 7.69277 0.89936C7.79453 0.883148 7.89718 0.875 8 0.875C8.10282 0.875 8.20547 0.883147 8.30723 0.899359C8.78487 0.97546 9.15865 1.2557 9.49541 1.59377C9.82357 1.9232 10.1902 2.38562 10.6345 2.94603L11.8231 4.44503C12.0375 4.7155 11.9921 5.10861 11.7216 5.32307C11.4512 5.53753 11.0581 5.49212 10.8436 5.22164L9.67873 3.7525C9.21354 3.16581 8.89388 2.76414 8.625 2.49127L8.625 6.5H7.375Z" fill="#2D69E0"/>
</svg>
